<svg xmlns="http://www.w3.org/2000/svg" width="262.313" height="29.188" viewBox="0 0 262.313 29.188">
  <defs>
    <style>
      .cls-1 {
        fill: #168352;
        fill-rule: evenodd;
      }
    </style>
  </defs>
  <path id="images_header_logo.svg" data-name="images/header/logo.svg" class="cls-1" d="M548.714,71v-9.84l2.4-2.52L559.353,71h8.24l-11.6-17.12,10.96-11.48h-8.4l-9.839,10.359V42.4h-7.081V71h7.081Zm26.919,0V50.519h-6.52V71h6.52Zm0-23.32V42.4h-6.52v5.28h6.52ZM585.273,71V61.8q0-3.278,1.76-4.78a5.8,5.8,0,0,1,4.8-1.06h0.16v-5.6a3.541,3.541,0,0,0-1.28-.16,6.3,6.3,0,0,0-5.6,3.52h-0.12v-3.2h-6.239V71h6.519Zm20.92-2.28h0.08a6.076,6.076,0,0,0,.68,2.28h6.321v-0.28q-0.721-.48-0.721-2.92V57.479q0-3.96-2.6-5.84-2.241-1.68-6.64-1.68t-6.779,2a6.672,6.672,0,0,0-2.5,5.04h6q0.321-2.64,3.32-2.64,2.8,0,2.8,2.2a1.533,1.533,0,0,1-1.1,1.46,17.78,17.78,0,0,1-4.1.82,13.238,13.238,0,0,0-5.76,1.9,5.1,5.1,0,0,0-2.079,4.539,5.722,5.722,0,0,0,1.919,4.6,7.552,7.552,0,0,0,5.08,1.64,6.911,6.911,0,0,0,6.08-2.8h0Zm-6.8-3.64a2.021,2.021,0,0,1,.8-1.72,7.617,7.617,0,0,1,2.76-1.04,18.351,18.351,0,0,0,3.36-1.08v2.44a3.4,3.4,0,0,1-1.14,2.66,4.3,4.3,0,0,1-2.98,1.02q-2.8,0-2.8-2.28h0ZM622.234,71V59.519a4.887,4.887,0,0,1,.859-3.02,2.814,2.814,0,0,1,2.38-1.14q2.88,0,2.88,3.48V71h6.52V59.519a4.894,4.894,0,0,1,.86-3.02,2.814,2.814,0,0,1,2.38-1.14q2.88,0,2.88,3.48V71h6.52V57.679a8.466,8.466,0,0,0-1.78-5.66,6.413,6.413,0,0,0-5.18-2.1,7.271,7.271,0,0,0-6.44,3.6h-0.079a5.923,5.923,0,0,0-5.761-3.6,6.813,6.813,0,0,0-6.2,3.52h-0.12v-2.92h-6.24V71h6.521Zm44.64-1.28a8.1,8.1,0,0,0,3.439-4.84h-6.36a3.351,3.351,0,0,1-3.4,2.04,4.175,4.175,0,0,1-3.12-1.18,5.794,5.794,0,0,1-1.48-3.3h14.72q0.08-6.6-3.6-9.959a10.859,10.859,0,0,0-14.58.519,10.741,10.741,0,0,0-2.94,7.721,10.745,10.745,0,0,0,2.98,7.82,10.576,10.576,0,0,0,7.94,3.06,10.863,10.863,0,0,0,6.4-1.88h0Zm-6.681-15.16a3.573,3.573,0,0,1,2.66,1.08,4.586,4.586,0,0,1,1.22,2.92h-8.08q0.72-4,4.2-4h0ZM679.313,71v-6.28l1.96-2.08L686.194,71h7.559l-8.04-12.8,7.2-7.68h-7.52l-6.08,6.92V42.4h-6.44V71h6.44Zm22.48,0V50.519h-6.52V71h6.52Zm0-23.32V42.4h-6.52v5.28h6.52ZM718.593,71V59.879h11.88v-5.72h-11.88v-5.8h14.2V42.4h-21.28V71h7.08Zm28.72-2.28h0.08a6.1,6.1,0,0,0,.68,2.28h6.32v-0.28q-0.72-.48-0.72-2.92V57.479q0-3.96-2.6-5.84-2.239-1.68-6.64-1.68t-6.78,2a6.675,6.675,0,0,0-2.5,5.04h6q0.319-2.64,3.32-2.64,2.8,0,2.8,2.2a1.534,1.534,0,0,1-1.1,1.46,17.768,17.768,0,0,1-4.1.82,13.234,13.234,0,0,0-5.76,1.9,5.1,5.1,0,0,0-2.08,4.539,5.722,5.722,0,0,0,1.92,4.6,7.552,7.552,0,0,0,5.08,1.64,6.91,6.91,0,0,0,6.08-2.8h0Zm-6.8-3.64a2.021,2.021,0,0,1,.8-1.72,7.616,7.616,0,0,1,2.761-1.04,18.361,18.361,0,0,0,3.359-1.08v2.44a3.4,3.4,0,0,1-1.14,2.66,4.3,4.3,0,0,1-2.98,1.02q-2.8,0-2.8-2.28h0ZM763.353,71V61.8q0-3.278,1.76-4.78a5.8,5.8,0,0,1,4.8-1.06h0.16v-5.6a3.541,3.541,0,0,0-1.28-.16,6.3,6.3,0,0,0-5.6,3.52h-0.12v-3.2h-6.24V71h6.52Zm15.32,0V59.519a4.887,4.887,0,0,1,.86-3.02,2.816,2.816,0,0,1,2.381-1.14q2.879,0,2.879,3.48V71h6.52V59.519a4.894,4.894,0,0,1,.86-3.02,2.816,2.816,0,0,1,2.38-1.14q2.88,0,2.88,3.48V71h6.52V57.679a8.471,8.471,0,0,0-1.779-5.66,6.416,6.416,0,0,0-5.181-2.1,7.27,7.27,0,0,0-6.44,3.6h-0.08a5.922,5.922,0,0,0-5.76-3.6,6.813,6.813,0,0,0-6.2,3.52h-0.12v-2.92h-6.24V71h6.52Z" transform="translate(-541.625 -42.406)"/>
</svg>
